<svg width="95" height="97" viewBox="0 0 95 97" fill="none" xmlns="http://www.w3.org/2000/svg">
<g clip-path="url(#clip0_1342_64)">
<path d="M16.5274 62.9155L16.7747 56.4785H9.8917L7.87215 62.9155H0L10.5924 33.3955H24.1935L24.3583 62.9155H16.5274ZM14.8376 40.5705L11.5815 50.9845H16.9808L17.4341 40.5705H14.8376Z" fill="#96C895"/>
<path d="M49.409 59.4429C47.2139 62.1407 43.6395 63.4895 38.6858 63.4895C34.7566 63.4895 32.0364 62.6422 30.5252 60.9475C29.4811 59.7449 28.959 58.0639 28.959 55.9045C28.959 54.9752 29.0552 53.9775 29.2475 52.9115L30.9373 43.4815C31.3866 40.9688 32.2621 38.9126 33.5639 37.3129C35.8448 34.51 39.4342 33.1085 44.3323 33.1085C47.5197 33.1085 49.9376 33.7919 51.5863 35.1585C53.2349 36.4979 54.0592 38.3429 54.0592 40.6935C54.0592 41.7869 53.8943 42.8802 53.5646 43.9735C53.2624 45.0395 52.9601 45.8322 52.6579 46.3515L52.2045 47.1715H44.9094C45.8161 46.1329 46.2695 44.6569 46.2695 42.7435C46.2695 41.7322 46.0084 40.9395 45.4864 40.3655C44.9643 39.7642 44.195 39.4635 43.1783 39.4635C41.5556 39.4635 40.3181 39.9868 39.4658 41.0335C38.8604 41.7768 38.4493 42.7842 38.2325 44.0555L36.7899 52.3375C36.6525 53.0482 36.5838 53.7452 36.5838 54.4285C36.5838 56.2325 37.6692 57.1345 39.8399 57.1345C41.3641 57.1345 42.5324 56.6359 43.3446 55.6386C43.9233 54.9281 44.3212 53.9644 44.5384 52.7475H51.9572L51.7511 53.9365C51.3674 56.1602 50.5867 57.9957 49.409 59.4429Z" fill="#96C895"/>
<path d="M67.9266 33.3955L72.3366 47.5405C72.3366 47.5405 72.8188 46.821 73.5657 45.7066C75.3835 42.9941 78.7693 37.942 80.5871 35.2295C81.334 34.115 81.8162 33.3955 81.8162 33.3955H89.6059L84.3715 62.9155H76.9115L79.879 46.2695L73.5319 56.1915H68.1326L65.33 46.2695L62.3625 62.9155H54.9437L60.1781 33.3955H67.9266Z" fill="#96C895"/>
<path d="M92.1364 30.2869H84.3467L81.8162 33.3955H89.6059L92.1364 30.2869Z" fill="#96C895"/>
<path d="M84.3467 30.2869L83.1176 32.1209L80.5871 35.2295L81.8162 33.3955L84.3467 30.2869Z" fill="#96C895"/>
<path d="M86.902 59.8069L92.1364 30.2869L89.6059 33.3955L84.3715 62.9155L86.902 59.8069Z" fill="#96C895"/>
<path d="M83.1176 32.1209L76.0962 42.598L73.5657 45.7066L80.5871 35.2295L83.1176 32.1209Z" fill="#96C895"/>
<path d="M70.457 30.2869H62.7085L60.178 33.3955H67.9265L70.457 30.2869Z" fill="#96C895"/>
<path d="M74.8671 44.4319L70.4571 30.2869L67.9266 33.3955L72.3366 47.5405L74.8671 44.4319Z" fill="#96C895"/>
<path d="M76.0962 42.598L74.8671 44.4319L72.3366 47.5405L73.5657 45.7066L76.0962 42.598Z" fill="#96C895"/>
<path d="M76.0624 53.083L82.4095 43.1609L79.879 46.2695L73.5319 56.1915L76.0624 53.083Z" fill="#96C895"/>
<path d="M82.4095 43.1609L79.442 59.807L76.9115 62.9155L79.879 46.2695L82.4095 43.1609Z" fill="#96C895"/>
<path d="M56.5897 37.5849C56.5897 35.2343 55.7654 33.3893 54.1168 32.0499L51.5863 35.1585C53.2349 36.4978 54.0592 38.3428 54.0592 40.6935L56.5897 37.5849Z" fill="#96C895"/>
<path d="M54.1168 32.0499C52.4681 30.6833 50.0502 29.9999 46.8628 29.9999L44.3323 33.1085C47.5197 33.1085 49.9376 33.7919 51.5863 35.1585L54.1168 32.0499Z" fill="#96C895"/>
<path d="M67.8605 43.1609L70.6632 53.083L68.1327 56.1915L65.33 46.2695L67.8605 43.1609Z" fill="#96C895"/>
<path d="M79.442 59.8069H86.902L84.3715 62.9155H76.9115L79.442 59.8069Z" fill="#96C895"/>
<path d="M56.0951 40.8649C56.4248 39.7716 56.5897 38.6783 56.5897 37.5849L54.0592 40.6935C54.0592 41.7868 53.8943 42.8802 53.5646 43.9735L56.0951 40.8649Z" fill="#96C895"/>
<path d="M70.6632 53.0829H76.0624L73.5319 56.1915H68.1327L70.6632 53.0829Z" fill="#96C895"/>
<path d="M62.7085 30.2869L57.4742 59.8069L54.9437 62.9155L60.178 33.3955L62.7085 30.2869Z" fill="#96C895"/>
<path d="M55.1883 43.2429C55.4906 42.7236 55.7928 41.9309 56.0951 40.8649L53.5646 43.9735C53.2623 45.0395 52.9601 45.8322 52.6578 46.3515L55.1883 43.2429Z" fill="#96C895"/>
<path d="M64.8929 59.807L67.8604 43.1609L65.3299 46.2695L62.3624 62.9155L64.8929 59.807Z" fill="#96C895"/>
<path d="M46.8628 29.9999C41.9647 29.9999 38.3752 31.4014 36.0944 34.2043L33.5661 37.3101C35.8471 34.5091 39.4358 33.1085 44.3323 33.1085L46.8628 29.9999Z" fill="#96C895"/>
<path d="M45.7089 36.3549C46.7255 36.3549 47.4949 36.6556 48.0169 37.257L45.4864 40.3655C44.9643 39.7642 44.195 39.4635 43.1783 39.4635L45.7089 36.3549Z" fill="#96C895"/>
<path d="M54.735 44.063L55.1884 43.243L52.6579 46.3515L52.2045 47.1715L54.735 44.063Z" fill="#96C895"/>
<path d="M48.0169 37.2569C48.539 37.8309 48.8 38.6236 48.8 39.6349L46.2695 42.7435C46.2695 41.7322 46.0085 40.9395 45.4864 40.3655L48.0169 37.2569Z" fill="#96C895"/>
<path d="M41.9963 37.9249C42.8486 36.8783 44.0862 36.3549 45.7088 36.3549L43.1783 39.4635C41.5556 39.4635 40.3181 39.9868 39.4658 41.0335L41.9963 37.9249Z" fill="#96C895"/>
<path d="M47.4399 44.0629H54.735L52.2045 47.1715H44.9094L47.4399 44.0629Z" fill="#96C895"/>
<path d="M48.8 39.6349C48.8 41.5483 48.3466 43.0243 47.4399 44.0629L45.1073 46.9283C45.0439 47.0119 44.978 47.093 44.9094 47.1715L45.1073 46.9283C45.8821 45.9071 46.2695 44.5121 46.2695 42.7435L48.8 39.6349Z" fill="#96C895"/>
<path d="M40.763 40.947C40.9797 39.6764 41.3904 38.6695 41.9951 37.9263L39.4658 41.0335C38.8604 41.7768 38.4493 42.7842 38.2325 44.0555L40.763 40.947Z" fill="#96C895"/>
<path d="M54.2817 50.8279L54.4877 49.6389L51.9572 52.7475L51.7512 53.9365L54.2817 50.8279Z" fill="#96C895"/>
<path d="M54.4877 49.6389H47.0689L44.5384 52.7475H51.9572L54.4877 49.6389Z" fill="#96C895"/>
<path d="M36.0944 34.2043C34.7926 35.804 33.9171 37.8602 33.4678 40.3729L30.9373 43.4815C31.3866 40.9688 32.2621 38.9126 33.5639 37.3129L36.0944 34.2043Z" fill="#96C895"/>
<path d="M57.4742 59.8069H64.893L62.3624 62.9155H54.9437L57.4742 59.8069Z" fill="#96C895"/>
<path d="M51.9395 56.3343C53.1171 54.8871 53.8978 53.0516 54.2816 50.8279L51.7511 53.9365C51.3673 56.1602 50.5866 57.9957 49.409 59.4429L51.9395 56.3343Z" fill="#96C895"/>
<path d="M39.3205 49.2289L40.763 40.9469L38.2325 44.0555L36.79 52.3375L39.3205 49.2289Z" fill="#96C895"/>
<path d="M47.069 49.6389C46.8518 50.8558 46.4538 51.8195 45.8751 52.53L43.3458 55.6371C43.9239 54.9267 44.3214 53.9635 44.5385 52.7475L47.069 49.6389Z" fill="#96C895"/>
<path d="M26.7239 30.2869H13.1229L10.5923 33.3955H24.1934L26.7239 30.2869Z" fill="#96C895"/>
<path d="M45.8751 52.53C45.0629 53.5273 43.8947 54.0259 42.3704 54.0259L39.8399 57.1345C41.3642 57.1345 42.5324 56.6359 43.3446 55.6386L45.8751 52.53Z" fill="#96C895"/>
<path d="M39.1144 51.3199C39.1144 50.6366 39.1831 49.9396 39.3204 49.2289L36.7899 52.3375C36.6526 53.0482 36.5839 53.7452 36.5839 54.4285L39.1144 51.3199Z" fill="#96C895"/>
<path d="M33.4678 40.3729L31.778 49.8029L29.2475 52.9115L30.9373 43.4815L33.4678 40.3729Z" fill="#96C895"/>
<path d="M42.3704 54.0259C40.1997 54.0259 39.1144 53.1239 39.1144 51.3199L36.5839 54.4285C36.5839 56.2325 37.6692 57.1345 39.8399 57.1345L42.3704 54.0259Z" fill="#96C895"/>
<path d="M41.2164 60.381C46.1682 60.381 49.7418 59.0331 51.9372 56.3373L49.409 59.4429C47.2139 62.1407 43.6395 63.4895 38.6859 63.4895L41.2164 60.381Z" fill="#96C895"/>
<path d="M17.3681 37.4619H19.9647L17.4342 40.5705H14.8376L17.3681 37.4619Z" fill="#96C895"/>
<path d="M26.8888 59.8069L26.724 30.2869L24.1935 33.3955L24.3583 62.9155L26.8888 59.8069Z" fill="#96C895"/>
<path d="M31.778 49.8029C31.5857 50.8689 31.4895 51.8666 31.4895 52.7959L28.959 55.9045C28.959 54.9752 29.0552 53.9775 29.2475 52.9115L31.778 49.8029Z" fill="#96C895"/>
<path d="M19.9647 37.4619L19.5113 47.8759L16.9808 50.9845L17.4341 40.5705L19.9647 37.4619Z" fill="#96C895"/>
<path d="M33.0557 57.8389C34.5669 59.5336 37.2871 60.3809 41.2163 60.3809L38.6858 63.4895C34.7566 63.4895 32.0364 62.6422 30.5251 60.9475L33.0557 57.8389Z" fill="#96C895"/>
<path d="M31.4895 52.7959C31.4895 54.9553 32.0116 56.6363 33.0557 57.8389L30.5252 60.9475C29.481 59.7448 28.959 58.0638 28.959 55.9045L31.4895 52.7959Z" fill="#96C895"/>
<path d="M14.1121 47.8759L17.3681 37.4619L14.8376 40.5705L11.5815 50.9845L14.1121 47.8759Z" fill="#96C895"/>
<path d="M19.5113 47.8759H14.1121L11.5815 50.9845H16.9808L19.5113 47.8759Z" fill="#96C895"/>
<path d="M13.1229 30.2869L2.53051 59.8069L0 62.9155L10.5924 33.3955L13.1229 30.2869Z" fill="#96C895"/>
<path d="M12.4222 53.3699H19.3052L16.7747 56.4785H9.89172L12.4222 53.3699Z" fill="#96C895"/>
<path d="M19.3051 53.3699L19.0579 59.8069L16.5273 62.9155L16.7746 56.4785L19.3051 53.3699Z" fill="#96C895"/>
<path d="M19.0579 59.8069H26.8888L24.3583 62.9155H16.5273L19.0579 59.8069Z" fill="#96C895"/>
<path d="M10.4026 59.8069L12.4222 53.3699L9.89169 56.4785L7.87213 62.9155L10.4026 59.8069Z" fill="#96C895"/>
<path d="M2.53051 59.8069H10.4027L7.87215 62.9155H0L2.53051 59.8069Z" fill="#96C895"/>
<path d="M20.2877 61L20.5397 54.406H13.5257L11.4677 61H3.44566L14.2397 30.76H28.0997L28.2677 61H20.2877ZM18.5657 38.11L15.2477 48.778H20.7497L21.2117 38.11H18.5657ZM42.8679 61.588C38.8639 61.588 36.0919 60.72 34.5519 58.984C33.4879 57.752 32.9559 56.03 32.9559 53.818C32.9559 52.866 33.0539 51.844 33.2499 50.752L34.9719 41.092C36.2319 34.008 40.7819 30.466 48.6219 30.466C51.8699 30.466 54.3339 31.166 56.0139 32.566C57.6939 33.938 58.5339 35.828 58.5339 38.236C58.5339 39.356 58.3659 40.476 58.0299 41.596C57.7219 42.688 57.4139 43.5 57.1059 44.032L56.6439 44.872H49.2099C50.1339 43.808 50.5959 42.296 50.5959 40.336C50.5959 39.3 50.3299 38.488 49.7979 37.9C49.2659 37.284 48.4819 36.976 47.4459 36.976C44.6179 36.976 42.9379 38.544 42.4059 41.68L40.9359 50.164C40.7959 50.892 40.7259 51.606 40.7259 52.306C40.7259 54.154 41.8319 55.078 44.0439 55.078C46.7039 55.078 48.2999 53.58 48.8319 50.584H56.3919L56.1819 51.802C55.0619 58.326 50.6239 61.588 42.8679 61.588ZM72.6653 30.76L77.1593 45.25L86.8193 30.76H94.7573L89.4233 61H81.8213L84.8453 43.948L78.3773 54.112H72.8753L70.0193 43.948L66.9953 61H59.4353L64.7693 30.76H72.6653Z" fill="#3B6124"/>
</g>
<defs>
<clipPath id="clip0_1342_64">
<rect width="95" height="97" fill="white"/>
</clipPath>
</defs>
</svg>
